# xmcd
#
# Track frame offsets:
# 150
# 16938
# 39757
# 63751
# 81635
# 102134
# 119090
# 134488
# 154303
# 165478
# 190517
#
# Disc length: 2739 seconds
#
#
# Revision: 0
# Processed by: cddbd v1.5.1PL0 Copyright (c) Steve Scherf et al.
# Submitted via: FreeRIP 2.931 
#
DISCID=880ab10b
DTITLE=Brickell, Patrick - The Pink Sofa (Songs From)
DYEAR=2004
DGENRE=Folk
TTITLE0=The Ghost of Hollis Brown
TTITLE1=Martha Falling Down
TTITLE2=Brooklyn
TTITLE3=Julianna
TTITLE4=Don't Come Back
TTITLE5=Evangeline
TTITLE6=Vermillion Trees
TTITLE7=Possums
TTITLE8=Birds
TTITLE9=Coal Dust flowers
TTITLE10=Mumbling
EXTD=
EXTT0=
EXTT1=
EXTT2=
EXTT3=
EXTT4=
EXTT5=
EXTT6=
EXTT7=
EXTT8=
EXTT9=
EXTT10=
PLAYORDER=
